<?xml version="1.0" encoding="UTF-8" standalone="no"?>
<!-- Created with Inkscape (http://www.inkscape.org/) -->

<svg
   xmlns:dc="http://purl.org/dc/elements/1.1/"
   xmlns:cc="http://creativecommons.org/ns#"
   xmlns:rdf="http://www.w3.org/1999/02/22-rdf-syntax-ns#"
   xmlns:svg="http://www.w3.org/2000/svg"
   xmlns="http://www.w3.org/2000/svg"
   xmlns:sodipodi="http://sodipodi.sourceforge.net/DTD/sodipodi-0.dtd"
   xmlns:inkscape="http://www.inkscape.org/namespaces/inkscape"
   width="249.94333mm"
   height="65.891975mm"
   viewBox="0 0 885.626 233.47551"
   id="svg4060"
   version="1.1"
   inkscape:version="0.91 r13725"
   sodipodi:docname="readme-xenon-api.svg">
  <defs
     id="defs4062" />
  <sodipodi:namedview
     id="base"
     pagecolor="#ffffff"
     bordercolor="#666666"
     borderopacity="1.0"
     inkscape:pageopacity="0.0"
     inkscape:pageshadow="2"
     inkscape:zoom="1"
     inkscape:cx="439.70041"
     inkscape:cy="91.023443"
     inkscape:document-units="px"
     inkscape:current-layer="layer1"
     showgrid="false"
     fit-margin-top="0"
     fit-margin-left="0"
     fit-margin-right="0"
     fit-margin-bottom="0"
     inkscape:window-width="1880"
     inkscape:window-height="974"
     inkscape:window-x="20"
     inkscape:window-y="52"
     inkscape:window-maximized="1" />
  <metadata
     id="metadata4065">
    <rdf:RDF>
      <cc:Work
         rdf:about="">
        <dc:format>image/svg+xml</dc:format>
        <dc:type
           rdf:resource="http://purl.org/dc/dcmitype/StillImage" />
        <dc:title></dc:title>
      </cc:Work>
    </rdf:RDF>
  </metadata>
  <g
     inkscape:label="Layer 1"
     inkscape:groupmode="layer"
     id="layer1"
     transform="translate(642.36115,-213.14227)">
    <rect
       style="color:#000000;clip-rule:nonzero;display:inline;overflow:visible;visibility:visible;opacity:1;isolation:auto;mix-blend-mode:normal;color-interpolation:sRGB;color-interpolation-filters:linearRGB;solid-color:#000000;solid-opacity:1;fill:#ffffff;fill-opacity:1;fill-rule:nonzero;stroke:none;stroke-width:2.37407184;stroke-linecap:butt;stroke-linejoin:miter;stroke-miterlimit:4;stroke-dasharray:none;stroke-dashoffset:0;stroke-opacity:1;marker:none;color-rendering:auto;image-rendering:auto;shape-rendering:auto;text-rendering:auto;enable-background:accumulate"
       id="rect3537"
       width="885.62598"
       height="233.47549"
       x="-642.36115"
       y="213.14227" />
    <g
       transform="matrix(0.36222538,0,0,0.36222538,-1022.0327,-435.54629)"
       style="display:inline"
       id="g3965">
      <path
         sodipodi:nodetypes="cccccccccc"
         inkscape:connector-curvature="0"
         id="rect4999-1-1-1-73-6"
         d="m 2418.5727,2247.064 0,79.8874 -650.7405,0 0,79.9626 1006.1374,0 0,-79.9626 -0.036,0 0,-79.8874 -355.361,0 z"
         style="color:#000000;clip-rule:nonzero;display:inline;overflow:visible;visibility:visible;opacity:1;isolation:auto;mix-blend-mode:normal;color-interpolation:sRGB;color-interpolation-filters:linearRGB;solid-color:#000000;solid-opacity:1;fill:#cccccc;fill-opacity:1;fill-rule:nonzero;stroke:#4d4d4d;stroke-width:2.73679996;stroke-linecap:butt;stroke-linejoin:miter;stroke-miterlimit:4;stroke-dasharray:none;stroke-dashoffset:0;stroke-opacity:1;marker:none;color-rendering:auto;image-rendering:auto;shape-rendering:auto;text-rendering:auto;enable-background:accumulate" />
      <g
         style="stroke:none"
         transform="matrix(0.8,0,0,0.8,730.00452,91.878068)"
         id="g3623">
        <g
           id="flowRoot4921-2-2-7-9-3"
           style="font-style:normal;font-variant:normal;font-weight:200;font-stretch:normal;font-size:57.0174408px;line-height:125%;font-family:Akkurat-Light;-inkscape-font-specification:'Akkurat-Light Ultra-Light';letter-spacing:0px;word-spacing:0px;display:inline;fill:#000000;fill-opacity:1;stroke:none;stroke-width:1px;stroke-linecap:butt;stroke-linejoin:miter;stroke-opacity:1"
           transform="translate(198.68299,797.04044)">
          <path
             inkscape:connector-curvature="0"
             id="path4566"
             d="m 2093.7699,1968.5137 q 0,3.0219 -2.1667,5.3026 -3.307,3.364 -11.2895,3.364 -7.3552,0 -10.6052,-3.307 -1.9956,-2.1096 -1.9956,-5.1316 0,-2.1096 1.1403,-3.9342 1.1404,-1.8245 3.136,-2.7368 -1.4825,-0.3991 -2.5658,-1.7675 -1.0263,-1.4255 -1.0263,-2.9079 0,-3.4211 3.421,-5.4167 -2.8508,-2.7368 -2.8508,-7.0131 0,-4.5044 3.0219,-7.2413 3.0219,-2.7368 7.6403,-2.7368 3.7632,0 6.6711,1.9386 0.5131,-1.7675 2.1096,-2.7939 1.6535,-1.0833 3.6491,-1.0833 0.1711,0 0.5132,0.057 0.3991,0.057 0.5702,0.057 l 0,2.4518 q -0.1711,0 -0.5702,-0.057 -0.3421,-0.057 -0.5132,-0.057 -1.5394,0 -2.6228,0.8552 -1.0263,0.7983 -1.3114,2.2237 2.2807,2.6228 2.2807,6.386 0,4.5043 -3.0789,7.1842 -3.079,2.6798 -7.6974,2.6798 -3.1929,0 -5.7017,-1.3114 -2.8509,1.0833 -2.8509,3.5351 0,1.8815 1.9956,2.6798 1.1974,0.4561 3.8202,0.4561 l 6.2149,0 q 5.6447,0 8.3816,2.7939 2.2807,2.2807 2.2807,5.5307 z m -8.4956,-18.1886 q 2.2807,-1.9956 2.2807,-5.3596 0,-3.3641 -2.2807,-5.3597 -2.2237,-2.0526 -5.6448,-2.0526 -3.421,0 -5.6447,2.0526 -2.2237,1.9956 -2.2237,5.3597 0,3.364 2.2237,5.3596 2.2237,1.9386 5.6447,1.9386 3.4211,0 5.6448,-1.9386 z m 5.6447,18.1886 q 0,-2.0527 -1.3684,-3.5351 -1.9956,-2.1097 -6.8991,-2.1097 l -7.5263,0 q -1.9957,0.4562 -3.3641,1.9956 -1.3684,1.5395 -1.3684,3.8772 0,2.1667 1.5395,3.5921 2.3947,2.2807 8.4386,2.2807 6.557,0 9.0657,-2.5087 1.4825,-1.4825 1.4825,-3.5921 z" />
          <path
             inkscape:connector-curvature="0"
             id="path4568"
             d="m 2129.4173,1935.4435 q 0,3.9342 -2.2807,6.8992 -2.2807,2.9078 -6.1008,3.9342 l 8.2105,17.9605 -3.25,0 -7.9254,-17.2193 -14.0833,0 0,17.2193 -2.9649,0 0,-40.4254 14.7675,0 q 6.5,0 10.035,3.1359 3.5921,3.136 3.5921,8.4956 z m -5.8728,6.5571 q 2.7939,-2.2807 2.7939,-6.5571 0,-4.2763 -2.7939,-6.557 -2.7368,-2.2807 -7.7543,-2.2807 l -11.8026,0 0,17.6754 11.8026,0 q 5.0175,0 7.7543,-2.2806 z" />
          <path
             inkscape:connector-curvature="0"
             id="path4570"
             d="m 2162.2166,1926.8339 q 3.7062,3.0219 3.7062,8.8947 0,5.8728 -3.7062,8.8948 -3.6491,3.0219 -9.75,3.0219 l -11.0613,0 0,0.057 0,16.5351 -2.965,0 0,-40.4254 14.0263,0 q 6.1009,0 9.75,3.0219 z m -2.2237,15.7368 q 2.8509,-2.2807 2.8509,-6.8421 0,-4.5614 -2.8509,-6.785 -2.8508,-2.2807 -7.5263,-2.2807 l -11.0613,0 0,18.1315 11.0613,0 q 4.6755,0 7.5263,-2.2237 z" />
          <path
             inkscape:connector-curvature="0"
             id="path4572"
             d="m 2200.543,1951.8646 q -0.4561,5.7017 -4.4473,9.4078 -3.9912,3.7062 -9.9211,3.7062 -6.2719,0 -10.6622,-4.3904 -2.9079,-2.9649 -3.8202,-7.0131 -0.9123,-4.1053 -0.9123,-9.5789 0,-5.4737 0.9123,-9.522 0.9123,-4.0482 3.8202,-7.0131 4.3903,-4.3903 10.6622,-4.3903 5.9299,0 9.9211,3.7061 3.9912,3.7061 4.4473,9.4079 l -3.0789,0 q -0.3991,-4.5614 -3.4781,-7.3553 -3.0789,-2.8508 -7.8114,-2.8508 -5.1315,0 -8.4956,3.478 -1.7105,1.7676 -2.6228,4.5044 -0.8552,2.7368 -1.0263,4.8465 -0.171,2.0526 -0.171,5.1886 0,3.0789 0.171,5.2456 0.1711,2.1096 1.0834,4.8464 0.9122,2.7369 2.6228,4.5044 3.364,3.4781 8.4385,3.4781 4.7325,0 7.8114,-2.7939 3.079,-2.8508 3.4781,-7.4122 l 3.0789,0 z" />
        </g>
      </g>
      <flowRoot
         style="font-style:normal;font-variant:normal;font-weight:200;font-stretch:normal;font-size:45.61395264px;line-height:125%;font-family:Akkurat-Light;-inkscape-font-specification:'Akkurat-Light Ultra-Light';letter-spacing:0px;word-spacing:0px;fill:#000000;fill-opacity:1;stroke:none;stroke-width:1px;stroke-linecap:butt;stroke-linejoin:miter;stroke-opacity:1"
         id="flowRoot4921-2-2"
         xml:space="preserve"><flowRegion
           id="flowRegion4923-20-7"><rect
             y="2339.9434"
             x="2156.5986"
             height="219.05058"
             width="477.28094"
             id="rect4925-2-0" /></flowRegion><flowPara
           id="flowPara4927-1-9">Xenon library</flowPara></flowRoot>      <g
         transform="matrix(0.8,0,0,0.8,324.5606,34.199324)"
         id="g4597">
        <path
           style="fill:none;fill-rule:evenodd;stroke:#4d4d4d;stroke-width:3.4210465;stroke-linecap:butt;stroke-linejoin:miter;stroke-miterlimit:4;stroke-dasharray:none;stroke-opacity:1"
           d="m 1998.7809,2865.3728 0,-468.8929"
           id="path4824-3-8"
           inkscape:connector-curvature="0"
           sodipodi:nodetypes="cc" />
        <rect
           style="color:#000000;clip-rule:nonzero;display:inline;overflow:visible;visibility:visible;opacity:1;isolation:auto;mix-blend-mode:normal;color-interpolation:sRGB;color-interpolation-filters:linearRGB;solid-color:#000000;solid-opacity:1;fill:#cccccc;fill-opacity:1;fill-rule:nonzero;stroke:#4d4d4d;stroke-width:3.4210465;stroke-linecap:butt;stroke-linejoin:miter;stroke-miterlimit:4;stroke-dasharray:none;stroke-dashoffset:0;stroke-opacity:1;marker:none;color-rendering:auto;image-rendering:auto;shape-rendering:auto;text-rendering:auto;enable-background:accumulate"
           id="rect4999-1-1-1-2"
           width="380.3186"
           height="163.35669"
           x="1803.4452"
           y="2231.4126" />
        <flowRoot
           xml:space="preserve"
           id="flowRoot4921-2-2-7-6"
           style="font-style:normal;font-variant:normal;font-weight:200;font-stretch:normal;font-size:57.0174408px;line-height:125%;font-family:Akkurat-Light;-inkscape-font-specification:'Akkurat-Light Ultra-Light';letter-spacing:0px;word-spacing:0px;display:inline;fill:#000000;fill-opacity:1;stroke:none;stroke-width:1px;stroke-linecap:butt;stroke-linejoin:miter;stroke-opacity:1"
           transform="translate(-255.00616,345.51351)"><flowRegion
             id="flowRegion4923-20-7-2-1"><rect
               id="rect4925-2-0-7-0"
               width="488.93225"
               height="138.53662"
               x="2006.4869"
               y="1899.3315" /></flowRegion><flowPara
             id="flowPara4927-1-9-2-6"
             style="text-align:center;text-anchor:middle">Java</flowPara><flowPara
             id="flowPara5570"
             style="text-align:center;text-anchor:middle">applications written in Java</flowPara></flowRoot>      </g>
      <g
         transform="translate(230,2)"
         id="g5632">
        <g
           id="g4566"
           transform="matrix(0.8,0,0,0.8,368.169,-256.32724)">
          <rect
             y="2594.5708"
             x="2276.564"
             height="239.96753"
             width="438.98459"
             id="rect4999-1-1-1-7"
             style="color:#000000;clip-rule:nonzero;display:inline;overflow:visible;visibility:visible;opacity:1;isolation:auto;mix-blend-mode:normal;color-interpolation:sRGB;color-interpolation-filters:linearRGB;solid-color:#000000;solid-opacity:1;fill:#cccccc;fill-opacity:1;fill-rule:nonzero;stroke:#4d4d4d;stroke-width:3.4210465;stroke-linecap:butt;stroke-linejoin:miter;stroke-miterlimit:4;stroke-dasharray:none;stroke-dashoffset:0;stroke-opacity:1;marker:none;color-rendering:auto;image-rendering:auto;shape-rendering:auto;text-rendering:auto;enable-background:accumulate" />
          <flowRoot
             transform="translate(189.65438,697.53073)"
             style="font-style:normal;font-variant:normal;font-weight:200;font-stretch:normal;font-size:57.0174408px;line-height:125%;font-family:Akkurat-Light;-inkscape-font-specification:'Akkurat-Light Ultra-Light';text-align:center;letter-spacing:0px;word-spacing:0px;text-anchor:middle;display:inline;fill:#000000;fill-opacity:1;stroke:none;stroke-width:1px;stroke-linecap:butt;stroke-linejoin:miter;stroke-opacity:1"
             id="flowRoot4921-2-2-7-1"
             xml:space="preserve"><flowRegion
               id="flowRegion4923-20-7-2-15"><rect
                 style="text-align:center;text-anchor:middle"
                 y="1913.1353"
                 x="2064.4626"
                 height="220.38295"
                 width="478.66895"
                 id="rect4925-2-0-7-97" /></flowRegion><flowPara
               id="flowPara4927-1-9-2-7"> Python, C++, </flowPara><flowPara
               id="flowPara5574">C#, Go, Node.js applications</flowPara></flowRoot>        </g>
        <path
           style="display:inline;fill:none;fill-rule:evenodd;stroke:#4d4d4d;stroke-width:2.73683715;stroke-linecap:butt;stroke-linejoin:miter;stroke-miterlimit:4;stroke-dasharray:none;stroke-opacity:1"
           d="m 2372.2533,2086.5217 0,-73.8499"
           id="path4824-3-8-1"
           inkscape:connector-curvature="0"
           sodipodi:nodetypes="cc" />
      </g>
      <rect
         ry="26.939571"
         y="2087.8901"
         x="2457.0276"
         height="79.887695"
         width="287.69058"
         id="rect4999-1-1-1-5"
         style="color:#000000;clip-rule:nonzero;display:inline;overflow:visible;visibility:visible;opacity:1;isolation:auto;mix-blend-mode:normal;color-interpolation:sRGB;color-interpolation-filters:linearRGB;solid-color:#000000;solid-opacity:1;fill:#cccccc;fill-opacity:1;fill-rule:nonzero;stroke:#4d4d4d;stroke-width:2.73679996;stroke-linecap:butt;stroke-linejoin:miter;stroke-miterlimit:4;stroke-dasharray:none;stroke-dashoffset:0;stroke-opacity:1;marker:none;color-rendering:auto;image-rendering:auto;shape-rendering:auto;text-rendering:auto;enable-background:accumulate"
         rx="26.939571" />
      <flowRoot
         transform="translate(106,0)"
         style="font-style:normal;font-variant:normal;font-weight:200;font-stretch:normal;font-size:45.61395264px;line-height:125%;font-family:Akkurat-Light;-inkscape-font-specification:'Akkurat-Light Ultra-Light';letter-spacing:0px;word-spacing:0px;display:inline;fill:#000000;fill-opacity:1;stroke:none;stroke-width:1px;stroke-linecap:butt;stroke-linejoin:miter;stroke-opacity:1"
         id="flowRoot4921-2-2-7-9"
         xml:space="preserve"><flowRegion
           id="flowRegion4923-20-7-2-4"><rect
             y="2100.8445"
             x="2390.7637"
             height="219.05058"
             width="477.28094"
             id="rect4925-2-0-7-9" /></flowRegion><flowPara
           id="flowPara4927-1-9-2-0">messages</flowPara></flowRoot>      <path
         sodipodi:nodetypes="cc"
         inkscape:connector-curvature="0"
         id="path4824-3-8-1-6"
         d="m 2602.2533,2244.9961 0,-75.8499"
         style="display:inline;fill:none;fill-rule:evenodd;stroke:#4d4d4d;stroke-width:2.73683715;stroke-linecap:butt;stroke-linejoin:miter;stroke-miterlimit:4;stroke-dasharray:none;stroke-opacity:1" />
      <path
         sodipodi:nodetypes="cc"
         inkscape:connector-curvature="0"
         id="path4824-3-8-2"
         d="m 2420.7574,2326.912 350.9917,0"
         style="fill:none;fill-rule:evenodd;stroke:#4d4d4d;stroke-width:2.73679996;stroke-linecap:butt;stroke-linejoin:miter;stroke-miterlimit:4;stroke-dasharray:5.47360001, 2.7368;stroke-dashoffset:0;stroke-opacity:1" />
      <path
         sodipodi:nodetypes="cc"
         inkscape:connector-curvature="0"
         id="path4824-3-8-6"
         d="m 2249.7592,2323.5893 0,-371.1143"
         style="fill:none;fill-rule:evenodd;stroke:#4d4d4d;stroke-width:2.73683715;stroke-linecap:butt;stroke-linejoin:miter;stroke-miterlimit:4;stroke-dasharray:none;stroke-opacity:1" />
      <rect
         y="1820.4211"
         x="2093.4907"
         height="130.68535"
         width="304.25488"
         id="rect4999-1-1-1-2-7"
         style="color:#000000;clip-rule:nonzero;display:inline;overflow:visible;visibility:visible;opacity:1;isolation:auto;mix-blend-mode:normal;color-interpolation:sRGB;color-interpolation-filters:linearRGB;solid-color:#000000;solid-opacity:1;fill:#cccccc;fill-opacity:1;fill-rule:nonzero;stroke:#4d4d4d;stroke-width:2.73683715;stroke-linecap:butt;stroke-linejoin:miter;stroke-miterlimit:4;stroke-dasharray:none;stroke-dashoffset:0;stroke-opacity:1;marker:none;color-rendering:auto;image-rendering:auto;shape-rendering:auto;text-rendering:auto;enable-background:accumulate" />
      <flowRoot
         transform="matrix(0.8,0,0,0.8,446.72957,311.70192)"
         style="font-style:normal;font-variant:normal;font-weight:200;font-stretch:normal;font-size:57.0174408px;line-height:125%;font-family:Akkurat-Light;-inkscape-font-specification:'Akkurat-Light Ultra-Light';letter-spacing:0px;word-spacing:0px;display:inline;fill:#000000;fill-opacity:1;stroke:none;stroke-width:1px;stroke-linecap:butt;stroke-linejoin:miter;stroke-opacity:1"
         id="flowRoot4921-2-2-7-6-5"
         xml:space="preserve"><flowRegion
           id="flowRegion4923-20-7-2-1-3"><rect
             y="1899.3315"
             x="2006.4869"
             height="138.53662"
             width="488.93225"
             id="rect4925-2-0-7-0-5" /></flowRegion><flowPara
           style="text-align:center;text-anchor:middle"
           id="flowPara5570-2">command</flowPara><flowPara
           style="text-align:center;text-anchor:middle"
           id="flowPara5614">line interface</flowPara></flowRoot>    </g>
  </g>
</svg>
